<svg id="visual" viewBox="0 0 1280 400" width="1280" height="400" xmlns="http://www.w3.org/2000/svg" xmlns:xlink="http://www.w3.org/1999/xlink" version="1.1"><rect x="0" y="0" width="1280" height="400" fill="#272727"></rect><defs><linearGradient id="grad1_0" x1="68.8%" y1="0%" x2="100%" y2="100%"><stop offset="-14.000000000000007%" stop-color="#272727" stop-opacity="1"></stop><stop offset="114.00000000000001%" stop-color="#272727" stop-opacity="1"></stop></linearGradient></defs><defs><linearGradient id="grad2_0" x1="0%" y1="0%" x2="31.3%" y2="100%"><stop offset="-14.000000000000007%" stop-color="#272727" stop-opacity="1"></stop><stop offset="114.00000000000001%" stop-color="#272727" stop-opacity="1"></stop></linearGradient></defs><g transform="translate(1280, 0)"><path d="M0 360C-36.8 356.3 -73.7 352.7 -111.2 342.4C-148.8 332.1 -187.1 315.2 -206.9 284.8C-226.7 254.4 -227.8 210.6 -249.2 181C-270.5 151.5 -312 136.3 -333.8 108.5C-355.6 80.7 -357.8 40.3 -360 0L0 0Z" fill="#d73644"></path></g><g transform="translate(0, 400)"><path d="M0 -360C39.9 -358.4 79.8 -356.8 110.3 -339.5C140.9 -322.3 162 -289.4 195.1 -268.6C228.2 -247.8 273.2 -239 291.2 -211.6C309.2 -184.2 300.2 -138.2 307.2 -99.8C314.1 -61.4 337.1 -30.7 360 0L0 0Z" fill="#d73644"></path></g></svg>